# xmcd CD database file
#
# Track frame offsets:
#	150
#	15546
#	28350
#	40304
#	53376
#	67518
#	81145
#	94892
#	108198
#	122571
#	136468
#	149123
#	161163
#	178389
#	189400
#	204181
#
# Disc length: 2873 seconds
#
# Revision: 0
# Processed by: cddbd v1.5.1PL0 Copyright (c) Steve Scherf et al.
# Submitted via: CDex 1.51
#
DISCID=da0b3710
DTITLE=Nat King Cole - Don't Blame Me
DYEAR=1900
DGENRE=Blues
TTITLE0=Don't Blame Me
TTITLE1=Dream A Little Dream Of Me
TTITLE2=Nature Boy
TTITLE3=For Sentimental Reason
TTITLE4='Tis Autumn
TTITLE5=I Used To Love You
TTITLE6=If I Had You
TTITLE7=My Mother Told Me
TTITLE8=Stormy Weather
TTITLE9=You Call It Madness
TTITLE10=After You Get What You Want You Don't Want It
TTITLE11=I Feel So Smoochie
TTITLE12=Chant Of The Blues
TTITLE13=Straighten Up and Fly Right
TTITLE14=Brahm's Lullaby
TTITLE15=Yes Sir, That's My Baby
EXTD=
EXTT0=
EXTT1=
EXTT2=
EXTT3=
EXTT4=
EXTT5=
EXTT6=
EXTT7=
EXTT8=
EXTT9=
EXTT10=
EXTT11=
EXTT12=
EXTT13=
EXTT14=
EXTT15=
PLAYORDER=
